<!--?xml version="1.0" encoding="utf-8"?-->
<!-- Generator: Adobe Illustrator 18.1.1, SVG Export Plug-In . SVG Version: 6.00 Build 0)  -->

<svg version="1.1" id="_x32_" xmlns="http://www.w3.org/2000/svg" xmlns:xlink="http://www.w3.org/1999/xlink" x="0px" y="0px" viewBox="0 0 512 512" style="width: 64px; height: 64px; opacity: 1;" xml:space="preserve">
<style type="text/css">
	.st0{fill:#4B4B4B;}
</style>
<g>
	<path class="st0" d="M488.689,57.904c-14.338-14.371-34.372-23.324-56.284-23.311H79.599c-21.916-0.014-41.946,8.94-56.284,23.311
		C8.943,72.242-0.01,92.276,0,114.188v283.624c-0.01,21.912,8.939,41.94,23.314,56.284c14.338,14.364,34.368,23.325,56.284,23.311
		h352.806c21.912,0.014,41.946-8.946,56.284-23.311c14.372-14.338,23.325-34.372,23.311-56.284V114.188
		C512.014,92.276,503.061,72.242,488.689,57.904z M374.202,393.798c0,6.21-5.027,11.243-11.243,11.243
		c-6.203,0-11.244-5.034-11.244-11.243v-37.473c0-6.21,5.04-11.243,11.244-11.243c6.216,0,11.243,5.034,11.243,11.243V393.798z
		 M470.486,397.812c-0.013,10.581-4.23,19.966-11.156,26.926c-6.959,6.926-16.345,11.142-26.926,11.155h-32.723v-157.98H276.755
		v157.98H79.599c-10.585-0.014-19.973-4.229-26.933-11.155c-6.922-6.96-11.142-16.345-11.152-26.926V193.729h428.972V397.812z" style="fill: rgb(223, 86, 86);"></path>
	<rect x="103.781" y="277.913" class="st0" width="91.102" height="87.636" style="fill: rgb(223, 86, 86);"></rect>
</g>
</svg>
