<!--?xml version="1.0" encoding="utf-8"?-->
<!-- Generator: Adobe Illustrator 15.1.0, SVG Export Plug-In . SVG Version: 6.00 Build 0)  -->

<svg version="1.1" id="_x32_" xmlns="http://www.w3.org/2000/svg" xmlns:xlink="http://www.w3.org/1999/xlink" x="0px" y="0px" width="512px" height="512px" viewBox="0 0 512 512" style="width: 64px; height: 64px; opacity: 1;" xml:space="preserve">
<style type="text/css">

	.st0{fill:#4B4B4B;}

</style>
<g>
	<path class="st0" d="M464.943,271.596c-28.828-114.938-140.468-158.172-150.234-168.688l27.453-99.938
		c0,0-34.281-11.078-82.359,9.563C198.663,38.784,164.6,5.315,164.6,5.315l30.172,99.156
		c-9.453,10.766-128.203,59.031-149.688,172.609c-18.547,97.703,39.484,237.14,212.922,234.89
		C431.459,509.689,489.193,368.096,464.943,271.596z M337.491,281.393v27.25H281.35l-9.359,14.578v17.375h65.5v27.266h-65.5v47.468
		h-31.969v-47.468h-65.5v-27.266h65.5v-17.375l-9.375-14.578h-56.125v-27.25h38.594l-45.922-71.453h32.734l56.078,87.25
		l56.094-87.25h32.703l-45.906,71.453H337.491z" style="fill: rgb(223, 86, 86);"></path>
</g>
</svg>
